<svg width="30" height="25" viewBox="0 0 30 25" fill="none" xmlns="http://www.w3.org/2000/svg">
<path d="M28.3064 0H1.69355C1.24454 0.000496289 0.814071 0.179083 0.496577 0.496577C0.179083 0.814072 0.000496289 1.24454 0 1.69355V18.629C0.000496289 19.078 0.179083 19.5085 0.496577 19.826C0.814071 20.1435 1.24454 20.3221 1.69355 20.3226H11.3819L10.8012 21.7742H8.22581C8.09748 21.7742 7.9744 21.8252 7.88366 21.9159C7.79291 22.0067 7.74194 22.1297 7.74194 22.2581V23.2258H4.83871C4.71038 23.2258 4.5873 23.2768 4.49656 23.3675C4.40582 23.4583 4.35484 23.5813 4.35484 23.7097C4.35484 23.838 4.40582 23.9611 4.49656 24.0518C4.5873 24.1426 4.71038 24.1935 4.83871 24.1935H25.1613C25.2896 24.1935 25.4127 24.1426 25.5034 24.0518C25.5942 23.9611 25.6452 23.838 25.6452 23.7097C25.6452 23.5813 25.5942 23.4583 25.5034 23.3675C25.4127 23.2768 25.2896 23.2258 25.1613 23.2258H22.2581V22.2581C22.2581 22.1297 22.2071 22.0067 22.1163 21.9159C22.0256 21.8252 21.9025 21.7742 21.7742 21.7742H19.1988L18.6181 20.3226H28.3064C28.7555 20.3221 29.1859 20.1435 29.5034 19.826C29.8209 19.5085 29.9995 19.078 30 18.629V1.69355C29.9995 1.24454 29.8209 0.814072 29.5034 0.496577C29.1859 0.179083 28.7555 0.000496289 28.3064 0ZM21.2903 22.7419V23.2258H8.70968V22.7419H21.2903ZM11.844 21.7742L12.4246 20.3226H17.5754L18.156 21.7742H11.844ZM29.0323 18.629C29.0321 18.8215 28.9556 19.006 28.8195 19.1421C28.6834 19.2782 28.4989 19.3547 28.3064 19.3548H1.69355C1.5011 19.3547 1.31658 19.2782 1.1805 19.1421C1.04442 19.006 0.967902 18.8215 0.967742 18.629V17.4194H29.0323V18.629ZM29.0323 16.4516H0.967742V1.69355C0.967902 1.5011 1.04442 1.31658 1.1805 1.1805C1.31658 1.04442 1.5011 0.967902 1.69355 0.967742H28.3064C28.4989 0.967902 28.6834 1.04442 28.8195 1.1805C28.9556 1.31658 29.0321 1.5011 29.0323 1.69355V16.4516Z" fill="white"/>
</svg>
