<svg width="23" height="23" viewBox="0 0 23 23" fill="none" xmlns="http://www.w3.org/2000/svg">
<path fill-rule="evenodd" clip-rule="evenodd" d="M11.508 1.0909e-06C8.77561 -0.00120317 6.132 0.994684 4.05057 2.80933C1.96915 4.62398 0.585863 7.13887 0.148404 9.90368C-0.289055 12.6685 0.247889 15.5026 1.66309 17.8986C3.07828 20.2946 5.27931 22.096 7.87203 22.9801C8.44631 23.0883 8.65735 22.7248 8.65735 22.4127C8.65735 22.1308 8.64697 21.3914 8.64005 20.4073C5.44168 21.1183 4.76534 18.8256 4.76534 18.8256C4.24294 17.4638 3.48876 17.1003 3.48876 17.1003C2.44397 16.3698 3.56833 16.384 3.56833 16.384C4.72209 16.4673 5.32924 17.5986 5.32924 17.5986C6.35674 19.4019 8.02252 18.8806 8.67811 18.5791C8.78189 17.8167 9.07942 17.2971 9.40807 17.0028C6.85318 16.7049 4.16856 15.6942 4.16856 11.1744C4.16856 9.88712 4.6183 8.83564 5.35346 8.01112C5.23411 7.71323 4.83972 6.51458 5.4659 4.89037C5.4659 4.89037 6.43112 4.57297 8.62794 6.09788C9.54473 5.83723 10.5307 5.70779 11.508 5.70247C12.4808 5.70386 13.4492 5.83682 14.3881 6.09788C16.5849 4.57297 17.5484 4.89214 17.5484 4.89214C18.1763 6.51458 17.782 7.71146 17.6626 8.01112C18.4012 8.83564 18.8458 9.88712 18.8458 11.1744C18.8458 15.7048 16.156 16.7014 13.5942 16.9939C14.0058 17.3574 14.3726 18.0773 14.3726 19.1785C14.3726 20.753 14.3604 22.0244 14.3604 22.4109C14.3604 22.7265 14.568 23.0936 15.151 22.9783C17.7388 22.089 19.934 20.2856 21.3445 17.8903C22.755 15.495 23.2889 12.6637 22.8508 9.90213C22.4128 7.14054 21.0314 4.62848 18.9533 2.8146C16.8752 1.00071 14.2357 0.00312503 11.5063 1.0909e-06H11.508Z" fill="white"/>
</svg>
